<svg height="480pt" viewBox="0 0 480 480.00018" width="480pt" xmlns="http://www.w3.org/2000/svg"><path d="m64 448c17.671875 0 32-14.328125 32-32s-14.328125-32-32-32-32 14.328125-32 32 14.328125 32 32 32zm0-48c8.835938 0 16 7.164062 16 16s-7.164062 16-16 16-16-7.164062-16-16 7.164062-16 16-16zm0 0"/><path d="m445.863281 359.40625c18.050781-17.792969 23.882813-44.570312 14.875-68.261719-9.011719-23.6875-31.160156-39.820312-56.472656-41.128906 12.765625-18.167969 15.167969-41.667969 6.34375-62.046875l-.074219-.183594c-.742187-1.703125-1.597656-3.359375-2.488281-5-.144531-.257812-.246094-.519531-.390625-.800781-14.371094-25.601563-44.34375-38.109375-72.648438-30.320313 7.789063-25.816406-1.460937-53.746093-23.125-69.804687-21.664062-16.058594-51.078124-16.792969-73.515624-1.835937-.742188-29.371094-21.414063-54.457032-50.101563-60.800782l-.449219-.023437c-23.902344-5.152344-48.644531 3.8125-63.695312 23.082031-10.535156-29.246094-40.574219-46.683594-71.191406-41.324219-30.621094 5.359375-52.9531255 31.957031-52.929688 63.042969v352c.0429688 27.503906 17.636719 51.910156 43.710938 60.648438.082031 0 .128906.097656.210937.121093.078125.023438.238281.046875.351563.085938 2.878906.917969 5.820312 1.632812 8.796874 2.136719.65625.121093 1.304688.207031 1.960938.304687 2.882812.433594 5.789062.667969 8.703125.703125h352.265625c29.410156-.011719 55.027344-20.066406 62.097656-48.617188 7.070313-28.546874-6.226562-58.238281-32.234375-71.976562zm.9375-59.445312c7.6875 25.363281-6.636719 52.160156-32 59.855468l-22.976562 6.960938-25.816407-85.136719 18.335938-12.914063 2.59375-.796874c25.367188-7.695313 52.167969 6.632812 59.863281 32zm-430.800781-115.960938h96v64h-96zm282.566406 23.199219 48.175782 68.425781-52.324219 36.800781-36-51.128906 6.78125-9.152344zm-124.925781 80.960937 7.09375-21.472656 14.058594-42.535156 46.007812 34.113281-3.59375 4.796875-34.542969 46.5625zm74.726563-13.289062 32.960937 46.816406-52.328125 36.839844-20.800781-29.519532zm-65.96875-64.101563-20.078126 60.796875-34.320312-11.351562v-67.414063zm-32.496094 149.359375 13.953125-42.242187 4.535156-13.71875 24.761719 18.359375-1.152344 1.535156c-.207031.257812-.402344.523438-.574219.800781l-36.449219 49.058594-7.769531-5.761719zm13.195312 29.75 19.589844-26.398437 15.519531-20.914063 17.738281 25.203125-52.328124 36.796875-5.601563-7.902344zm58.160156-245.71875 67.199219 49.855469-38.128906 51.402344-50.230469-37.265625 12.453125-37.695313zm-33.832031 51.417969-59.425781-19.578125v-67.441406l79.457031 26.25-17.433593 52.800781zm-59.425781 140.421875v-58.9375l29.257812 9.664062-.800781 2.480469-13.730469 41.601563-5.519531 16.703125-9.207031-3.046875zm13.921875 48.152344 3.527344 2.617187-7.921875 10.679688zm6.054687 26.054687 2.527344 3.59375-10.863281 7.648438zm90.726563 2.984375-10.480469-34.542968 55.121094-38.808594 16.464844 54.34375c-.460938.25-.898438.546875-1.304688.878906l-9.542968 2.898438zm58.402344-83.046875 55.109375-38.800781 24.273437 80.082031-61.25 18.566407zm-185.105469-226.144531v64h-96v-64zm-96 160h96v64h-96zm112 97.320312 4.167969 1.375-4.167969 12.609376zm6.144531 83.566407 11.414063-8 1.265625 4.195312zm1.855469 16.160156v2.953125h-9.742188zm23.335938-33.894531 55.113281-38.800782 8.941406 29.488282-61.246094 18.558594zm231.734374-241.433594c.933594 1.328125 1.796876 2.699219 2.585938 4.113281.175781.296875.304688.617188.472656.921875.597656 1.117188 1.183594 2.246094 1.6875 3.398438.0625.144531.105469.289062.160156.425781 3.667969 8.632813 4.71875 18.15625 3.023438 27.382813-.519531 2.882812-1.300781 5.714843-2.335938 8.457031-.121093.308593-.273437.613281-.398437.925781-1.03125 2.59375-2.289063 5.089844-3.753906 7.464844-.167969.261718-.367188.511718-.542969.800781-1.542969 2.394531-3.300781 4.640625-5.25 6.71875-.109375.121094-.246094.230469-.367188.351563-2.105468 2.195312-4.417968 4.1875-6.902343 5.945312l-19.625 13.773438-51.199219-72.742188 13.34375-17.992188 2.238281-1.601562c21.691407-15.207031 51.601563-9.992188 66.863281 11.65625zm-88.757812-90.984375c21.292969 15.796875 25.75 45.863281 9.953125 67.152344l-14.296875 19.273437-71.464844-53 7.03125-21.28125 1.601563-2.191406c15.816406-21.269531 45.871093-25.722656 67.175781-9.953125zm-85.007812-34.542969c2.132812 4.230469 3.632812 8.75 4.449218 13.417969.535156 3.066406.765625 6.179687.6875 9.292969-.109375 4.738281-.917968 9.429687-2.402344 13.929687l-7.527343 22.785157-84.511719-27.914063v-22.398437l.847656-2.578126c.964844-2.882812 2.203125-5.667968 3.6875-8.320312.082032-.148438.152344-.316406.242188-.46875 1.421875-2.464844 3.0625-4.796875 4.902344-6.96875.199218-.242188.375-.503906.585937-.746094 1.855469-2.109375 3.894531-4.050781 6.09375-5.796875.242187-.1875.449219-.402343.6875-.585937 2.371094-1.824219 4.902344-3.433594 7.5625-4.800782 8.328125-4.265624 17.726563-6 27.03125-4.984374h.390625c1.28125.152343 2.5625.394531 3.847656.65625.304688.066406.617188.089843.921875.160156 1.585938.351562 3.152344.78125 4.695313 1.289062 12.109375 3.972656 22.121094 12.628906 27.808594 24.03125zm-201.304688 3.808594c0-26.507812 21.492188-48 48-48 26.511719 0 48 21.492188 48 48v24h-96zm0 352v-72h96v6.488281.542969 64.96875c-.011719 5.679688-1.039062 11.308594-3.03125 16.625-.304688.800781-.617188 1.6875-.96875 2.503906s-.726562 1.542969-1.113281 2.3125c-.300781.605469-.597657 1.214844-.917969 1.808594-.503906.894531-1.046875 1.757812-1.601562 2.613281-.261719.425781-.527344.855469-.800782 1.273438-.597656.871093-1.246094 1.703125-1.902344 2.535156-.496093.632813-1.015624 1.242187-1.535156 1.839844-.519531.601562-1.007812 1.144531-1.535156 1.695312l-.800781.800781c-.21875.214844-.441407.417969-.664063.625-.570312.542969-1.152344 1.070313-1.746094 1.597657-.445312.386719-.886718.800781-1.34375 1.144531-.664062.539062-1.359374 1.03125-2.046874 1.539062l-1.191407.796876c-1.5625 1.058593-3.1875 2.023437-4.863281 2.890624-.472656.246094-.960938.46875-1.449219.703126l-.289062.128906c-1.464844.683594-2.964844 1.289062-4.496094 1.816406-.597656.207031-1.191406.421875-1.800781.605469l-.34375.105469c-.679688.199218-1.375.3125-2.054688.480468-1.128906.277344-2.253906.566406-3.398437.796875-.234375.042969-.464844.089844-.707031.121094l-.679688.105469-.367188.046875c-1.835937.25-3.683593.390625-5.535156.425781-.382812 0-.800781 0-1.144531 0-1.023437 0-2.023437-.089844-3.023437-.152344-.617188-.050781-1.230469-.058594-1.847657-.128906-.800781-.089844-1.601562-.238281-2.402343-.367188-.796876-.128906-1.597657-.234374-2.398438-.410156-.601562-.125-1.183594-.3125-1.777344-.453125-.972656-.25-1.949218-.496093-2.917968-.800781-19.808594-6.394531-33.253907-24.808594-33.304688-45.625zm136 40.199219 7.113281-2.160157 56.886719-17.238281v27.199219h-64zm80-24.246094 3.6875-1.121094 60.3125-18.289062v51.457031h-64zm80-24.257813 15.816406-4.800781 48.183594-14.597656v75.703125h-64zm104 56.304688h-24v-80.550781l27.433594-8.320313c3.910156-1.191406 7.699218-2.75 11.320312-4.65625 22.484375 7.222656 36.351563 29.753906 32.671875 53.082032-3.679687 23.328124-23.808593 40.492187-47.425781 40.445312zm0 0"/></svg>