<svg height="512" viewBox="0 0 512 512" width="512" xmlns="http://www.w3.org/2000/svg"><g id="Solid"><g><circle cx="408" cy="416" r="8"/><path d="m176 200h-56.723a22.066 22.066 0 0 0 -17.793 9.061l-45.774 62.939h120.29z"/><path d="m192 400h162.328a56.009 56.009 0 0 1 107.344 0h8.328a10 10 0 0 0 10-10v-46h-288z"/><path d="m408 376a40 40 0 1 0 40 40 40.045 40.045 0 0 0 -40-40zm0 64a24 24 0 1 1 24-24 24.027 24.027 0 0 1 -24 24z"/><path d="m176 288h-104v36a28 28 0 0 1 -28 28h-12v38a10 10 0 0 0 10 10h8.328a56.009 56.009 0 0 1 107.344 0h18.328zm-16 32h-32v-16h32z"/><circle cx="104" cy="416" r="8"/><path d="m176 152h-14.367a10 10 0 0 0 -8.32 4.453l-18.365 27.547h41.052z"/><path d="m104 376a40 40 0 1 0 40 40 40.045 40.045 0 0 0 -40-40zm0 64a24 24 0 1 1 24-24 24.027 24.027 0 0 1 -24 24z"/><path d="m273.056 180.808 5.025 31.9a115 115 0 0 0 45.387 72.005l12.727 9.374 11.882-8.637a114.979 114.979 0 0 0 45.981-72.429l5.084-32.214-63.042-28.107zm108.61 16.846-48 48a8 8 0 0 1 -11.313 0l-24-24 11.313-11.313 18.343 18.343 42.344-42.343z"/><path d="m32 300v36h12a12.013 12.013 0 0 0 12-12v-36h-12a12.013 12.013 0 0 0 -12 12z"/><path d="m470 120h-268a10 10 0 0 0 -10 10v198h288v-198a10 10 0 0 0 -10-10zm-246 192h-16v-16h16zm0-160h-16v-16h16zm191.9 25.245-6.055 38.364c-.01.062-.02.124-.032.186a130.9 130.9 0 0 1 -52.33 82.6l-16.617 12.08a8 8 0 0 1 -9.448-.03l-17.438-12.845a130.945 130.945 0 0 1 -51.658-82.116c-.011-.063-.022-.125-.031-.188l-5.994-38.05a8 8 0 0 1 4.645-8.551l71.9-32.061a8 8 0 0 1 6.516 0l71.9 32.061a8 8 0 0 1 4.642 8.55zm48.1 134.755h-16v-16h16zm0-160h-16v-16h16z"/><path d="m16 136h64v16h-64z"/><path d="m96 136h16v16h-16z"/><path d="m88 56h128v16h-128z"/><path d="m232 56h16v16h-16z"/><path d="m304 72h128v16h-128z"/><path d="m448 72h16v16h-16z"/><path d="m168 440h144v16h-144z"/><path d="m328 440h16v16h-16z"/></g></g></svg>