<?xml version="1.0" encoding="iso-8859-1"?>
<!-- Generator: Adobe Illustrator 19.0.0, SVG Export Plug-In . SVG Version: 6.00 Build 0)  -->
<svg version="1.1" id="Capa_1" xmlns="http://www.w3.org/2000/svg" xmlns:xlink="http://www.w3.org/1999/xlink" x="0px" y="0px"
	 viewBox="0 0 512.001 512.001" style="enable-background:new 0 0 512.001 512.001;" xml:space="preserve">
<g>
	<g>
		<g>
			<path d="M502.001,75H338.002H338H174H10C4.477,75,0,79.477,0,85v342c0,5.523,4.477,10,10,10h164h164h0.002h163.999
				c5.522,0,10-4.477,10-10V85C512.001,79.476,507.523,75,502.001,75z M164,299.266l-54.662,54.664
				c-3.905,3.904-3.904,10.236,0,14.143c1.953,1.951,4.512,2.928,7.071,2.928s5.118-0.977,7.071-2.928L164,327.55v89.449H20V348.89
				l33.159-33.158c3.905-3.906,3.905-10.238,0.001-14.143c-3.906-3.904-10.238-3.904-14.143,0L20,320.607V202.246h144V299.266z
				 M164,182.246H20V95h144V182.246z M184,202.245h77.019L184,279.265V202.245z M328,416.999h-22.446L328,394.554V416.999z
				 M328,366.27l-50.731,50.729H184V307.55l105.304-105.305H328V366.27z M328,182.247H184v-0.001V95h80.771l-19.016,19.016
				c-3.906,3.906-3.905,10.238,0,14.143c1.953,1.953,4.512,2.93,7.07,2.93c2.56,0,5.119-0.977,7.072-2.93l33.157-33.158H328V182.247
				z M492,416.999H348v-42.445l47.736-47.734c3.904-3.906,3.905-10.238,0-14.142c-3.906-3.904-10.237-3.904-14.142,0L348,346.271
				V202.246h65.522l-19.017,19.018c-3.905,3.904-3.905,10.236-0.001,14.143c1.953,1.951,4.512,2.928,7.072,2.928
				c2.559,0,5.118-0.977,7.07-2.928l33.16-33.16H492V416.999z M492.001,182.246H348V95h144.001V182.246z"/>
			<path d="M66.404,298.348c2.598,0,5.193-1.006,7.152-3.01l0.168-0.172c3.859-3.949,3.786-10.281-0.164-14.141
				c-3.951-3.859-10.281-3.789-14.14,0.162l-0.168,0.172c-3.859,3.949-3.786,10.281,0.164,14.141
				C61.361,297.4,63.883,298.348,66.404,298.348z"/>
			<path d="M374.053,241.711l-0.164,0.172c-3.83,3.977-3.711,10.309,0.268,14.139c1.939,1.867,4.439,2.797,6.935,2.797
				c2.622,0,5.241-1.025,7.204-3.065l0.165-0.172c3.83-3.977,3.711-10.309-0.268-14.139
				C384.215,237.613,377.885,237.73,374.053,241.711z"/>
			<path d="M225.437,134.33l-0.168,0.168c-3.904,3.904-3.904,10.236,0,14.143c1.953,1.951,4.513,2.928,7.072,2.928
				s5.118-0.977,7.07-2.928l0.168-0.168c3.904-3.904,3.904-10.236,0-14.143C235.674,130.425,229.342,130.425,225.437,134.33z"/>
		</g>
	</g>
</g>
<g>
</g>
<g>
</g>
<g>
</g>
<g>
</g>
<g>
</g>
<g>
</g>
<g>
</g>
<g>
</g>
<g>
</g>
<g>
</g>
<g>
</g>
<g>
</g>
<g>
</g>
<g>
</g>
<g>
</g>
</svg>
