<svg id="Capa_1" enable-background="new 0 0 511.982 511.982" height="512" viewBox="0 0 511.982 511.982" width="512" xmlns="http://www.w3.org/2000/svg"><g><g><path d="m502.341 200.846-15.895-15.895c-6.823-6.823-17.925-6.822-24.748 0l-1.803 1.803-19.413-19.413 1.803-1.803c6.823-6.823 6.823-17.925 0-24.749l-25.344-25.344c-2.929-2.929-7.678-2.929-10.606 0-2.929 2.929-2.929 7.678 0 10.606l25.344 25.344c.975.975.975 2.561 0 3.536l-51.383 51.383c-.637.637-1.381.732-1.768.732s-1.131-.095-1.768-.732l-79.353-79.353c-.896-.896-1.023-2.283-.298-3.227 26.702-34.722 5.015-73.448-5.549-88.487-.71-1.011-.601-2.369.26-3.229l8.472-8.473c.975-.975 2.561-.975 3.536 0l79.177 79.177c2.929 2.929 7.678 2.929 10.606 0 2.929-2.929 2.929-7.678 0-10.606l-79.178-79.178c-6.822-6.822-17.925-6.822-24.748 0l-8.473 8.473c-6.025 6.025-6.836 15.47-1.928 22.458 10.754 15.309 25.824 44.854 5.933 70.721-5.302 6.895-4.622 16.773 1.582 22.977l19.706 19.706-75.693 75.694c-6.995-2.602-15.098-1.199-20.908 4.299l-203.578 192.677c-4.002 3.788-6.248 8.909-6.324 14.419-.076 5.51 2.029 10.69 5.925 14.586l39.282 39.282c3.829 3.829 8.897 5.927 14.3 5.927.096 0 .191 0 .288-.002 5.51-.076 10.631-2.322 14.419-6.324l192.674-203.579c5.498-5.81 6.901-13.912 4.299-20.908l12.087-12.087c2.929-2.929 2.929-7.678 0-10.606-2.929-2.929-7.678-2.929-10.606 0l-10.774 10.774-19.162-19.162 74.381-74.381 19.163 19.163-40.279 40.279c-2.929 2.929-2.929 7.678 0 10.606 1.464 1.464 3.384 2.197 5.303 2.197s3.839-.732 5.303-2.197l40.279-40.279 19.271 19.271c3.412 3.412 7.893 5.118 12.374 5.118s8.963-1.706 12.375-5.118l.003-.003 19.413 19.413-.003.003c-6.823 6.823-6.823 17.925 0 24.749l15.894 15.894c6.428 6.428 14.872 9.642 23.315 9.642s16.887-3.214 23.315-9.642l29.501-29.501c12.854-12.857 12.854-33.775-.001-46.631zm-278.139 116.688-37.578-37.578 9.485-8.977 37.07 37.07zm-160.881 169.987c-.98 1.036-2.305 1.617-3.731 1.637-1.434.029-2.766-.525-3.774-1.533l-39.282-39.282c-1.008-1.008-1.553-2.349-1.533-3.774.02-1.426.601-2.751 1.636-3.731l27.581-26.103 5.521 5.521c1.464 1.464 3.384 2.197 5.303 2.197s3.839-.732 5.303-2.197c2.929-2.929 2.929-7.678 0-10.606l-5.229-5.229 120.61-114.149 38.162 38.162-114.149 120.608-16.066-16.067c-2.929-2.93-7.678-2.929-10.606 0-2.929 2.929-2.929 7.678 0 10.606l16.358 16.359zm192.675-203.58-12.502 13.21-36.486-36.486 13.21-12.502c1.019-.964 2.31-1.444 3.601-1.444 1.337 0 2.673.516 3.702 1.544l28.375 28.376c2.019 2.02 2.063 5.227.1 7.302zm145.516-77.628 28.364-28.364 19.413 19.413-28.363 28.364zm90.222 30.556-29.501 29.501c-7.007 7.007-18.409 7.007-25.417 0l-15.894-15.894c-.975-.975-.975-2.561 0-3.536l51.382-51.382c.976-.974 2.562-.976 3.536 0l15.894 15.894c7.007 7.008 7.007 18.41 0 25.417z"/><path d="m345.888 92.138c-2.929 2.929-2.929 7.678 0 10.606l33.892 33.892c1.464 1.464 3.384 2.197 5.303 2.197s3.839-.732 5.303-2.197c2.929-2.929 2.929-7.678 0-10.606l-33.892-33.892c-2.928-2.928-7.677-2.928-10.606 0z"/></g></g></svg>