<svg height="512pt" viewBox="0 0 512 512" width="512pt" xmlns="http://www.w3.org/2000/svg"><path d="m8.535156 110.933594h8.53125c4.714844 0 8.535156-3.820313 8.535156-8.535156 0-4.710938-3.820312-8.53125-8.535156-8.53125h-8.53125c-4.714844 0-8.535156 3.820312-8.535156 8.53125 0 4.714843 3.820312 8.535156 8.535156 8.535156zm0 0"/><path d="m28.558594 60.683594-7.582032-3.910156c-4.171874-2.039063-9.207031-.367188-11.335937 3.757812-2.125 4.128906-.5625 9.195312 3.519531 11.410156l7.582032 3.910156c1.203124.625 2.542968.949219 3.898437.949219 3.9375 0 7.367187-2.691406 8.296875-6.519531s-.878906-7.792969-4.378906-9.597656zm0 0"/><path d="m32.234375 132.625c-1.035156-2.015625-2.828125-3.535156-4.984375-4.226562-2.15625-.6875-4.496094-.492188-6.507812.550781l-7.582032 3.910156c-3.5 1.804687-5.3125 5.769531-4.382812 9.597656.929687 3.828125 4.359375 6.519531 8.296875 6.519531 1.359375 0 2.695312-.324218 3.902343-.953124l7.582032-3.90625c2.011718-1.035157 3.53125-2.828126 4.21875-4.984376s.492187-4.496093-.542969-6.507812zm0 0"/><path d="m8.535156 264.535156h8.53125c4.714844 0 8.535156-3.824218 8.535156-8.535156s-3.820312-8.535156-8.535156-8.535156h-8.53125c-4.714844 0-8.535156 3.824218-8.535156 8.535156s3.820312 8.535156 8.535156 8.535156zm0 0"/><path d="m28.558594 214.28125-7.582032-3.90625c-4.171874-2.039062-9.207031-.371094-11.335937 3.757812-2.125 4.125-.5625 9.195313 3.519531 11.410157l7.582032 3.90625c1.203124.628906 2.542968.953125 3.898437.949219 3.9375.003906 7.367187-2.691407 8.296875-6.515626.929688-3.828124-.878906-7.792968-4.378906-9.601562zm0 0"/><path d="m32.234375 286.226562c-1.03125-2.019531-2.824219-3.539062-4.984375-4.230468-2.15625-.6875-4.5-.488282-6.507812.554687l-7.582032 3.90625c-3.5 1.804688-5.3125 5.773438-4.382812 9.601563.929687 3.824218 4.359375 6.519531 8.296875 6.515625 1.359375.003906 2.695312-.324219 3.902343-.949219l7.582032-3.90625c2.011718-1.039062 3.53125-2.832031 4.21875-4.984375.6875-2.15625.492187-4.5-.542969-6.507813zm0 0"/><path d="m8.535156 418.132812h8.53125c4.714844 0 8.535156-3.820312 8.535156-8.53125 0-4.714843-3.820312-8.535156-8.535156-8.535156h-8.53125c-4.714844 0-8.535156 3.820313-8.535156 8.535156 0 4.710938 3.820312 8.53125 8.535156 8.53125zm0 0"/><path d="m28.558594 367.882812-7.582032-3.90625c-4.171874-2.039062-9.207031-.371093-11.335937 3.753907-2.125 4.128906-.5625 9.199219 3.519531 11.410156l7.582032 3.910156c1.203124.625 2.542968.953125 3.898437.949219 3.9375.003906 7.367187-2.691406 8.296875-6.519531.929688-3.824219-.878906-7.792969-4.378906-9.597657zm0 0"/><path d="m20.742188 436.148438-7.582032 3.910156c-3.5 1.804687-5.3125 5.769531-4.382812 9.597656.929687 3.828125 4.359375 6.519531 8.296875 6.519531 1.359375 0 2.695312-.324219 3.902343-.949219l7.582032-3.910156c4.082031-2.214844 5.644531-7.28125 3.515625-11.410156-2.125-4.125-7.160157-5.796875-11.332031-3.757812zm0 0"/><path d="m469.332031 102.398438c-.027343-9.144532-3.019531-18.035157-8.53125-25.335938v-59.996094c-.011719-9.421875-7.648437-17.0546872-17.066406-17.066406h-34.132813c-1.691406.0234375-3.371093.300781-4.976562.828125-1.113281-.535156-2.328125-.8164062-3.558594-.828125h-290.132812c-1.230469.0117188-2.445313.292969-3.554688.828125-1.609375-.523437-3.289062-.8046875-4.980468-.828125h-34.132813c-9.417969.0117188-17.054687 7.644531-17.066406 17.066406v59.996094c-11.375 14.976562-11.375 35.699219 0 50.671875v102.929687c-11.375 14.972657-11.375 35.699219 0 50.671876v102.929687c-11.375 14.972656-11.375 35.695313 0 50.671875v59.996094c.011719 9.421875 7.648437 17.054687 17.066406 17.066406h34.132813c1.691406-.023438 3.371093-.304688 4.980468-.828125 1.109375.535156 2.324219.816406 3.554688.828125h290.132812c1.230469-.011719 2.445313-.292969 3.554688-.828125 1.609375.523437 3.289062.804687 4.980468.828125h34.132813c9.417969-.011719 17.054687-7.644531 17.066406-17.066406v-59.996094c11.375-14.976562 11.375-35.699219 0-50.671875v-102.929687c11.375-14.972657 11.375-35.699219 0-50.671876v-102.929687c5.511719-7.296875 8.503907-16.1875 8.53125-25.335937zm-17.066406 0c0 14.140624-11.460937 25.601562-25.597656 25.601562-14.140625 0-25.601563-11.460938-25.601563-25.601562 0-14.136719 11.460938-25.597657 25.601563-25.597657 14.128906.015625 25.582031 11.46875 25.597656 25.597657zm0 153.601562c0 14.136719-11.460937 25.601562-25.597656 25.601562-14.140625 0-25.601563-11.464843-25.601563-25.601562s11.460938-25.601562 25.601563-25.601562c14.128906.015624 25.582031 11.46875 25.597656 25.601562zm-51.199219 153.601562c0-14.140624 11.460938-25.601562 25.601563-25.601562 14.136719 0 25.597656 11.460938 25.597656 25.601562 0 14.136719-11.460937 25.597657-25.597656 25.597657-14.132813-.015625-25.585938-11.46875-25.601563-25.597657zm25.601563-42.667968c-5.878907.007812-11.691407 1.238281-17.066407 3.617187v-75.5c10.867188 4.820313 23.265626 4.820313 34.132813 0v75.5c-5.378906-2.378906-11.1875-3.609375-17.066406-3.617187zm0-153.601563c-5.878907.007813-11.691407 1.242188-17.066407 3.617188v-75.5c10.867188 4.824219 23.265626 4.824219 34.132813 0v75.5c-5.378906-2.375-11.1875-3.609375-17.066406-3.617188zm17.066406-196.265625v46.285156c-10.867187-4.824218-23.265625-4.824218-34.132813 0v-46.285156zm-332.800781 85.332032c0 14.140624-11.460938 25.601562-25.601563 25.601562-14.136719 0-25.597656-11.460938-25.597656-25.601562 0-14.136719 11.460937-25.597657 25.597656-25.597657 14.132813.015625 25.585938 11.46875 25.601563 25.597657zm-25.601563 42.667968c5.878907-.007812 11.691407-1.238281 17.066407-3.617187v75.5c-10.867188-4.820313-23.265626-4.820313-34.132813 0v-75.5c5.378906 2.378906 11.1875 3.609375 17.066406 3.617187zm-25.597656 110.933594c0-14.136719 11.460937-25.601562 25.597656-25.601562 14.140625 0 25.601563 11.464843 25.601563 25.601562s-11.460938 25.601562-25.601563 25.601562c-14.128906-.015624-25.582031-11.46875-25.597656-25.601562zm25.597656 42.667969c5.878907-.007813 11.691407-1.242188 17.066407-3.617188v75.5c-10.867188-4.824219-23.265626-4.824219-34.132813 0v-75.5c5.378906 2.375 11.1875 3.609375 17.066406 3.617188zm-25.597656 110.933593c0-14.140624 11.460937-25.601562 25.597656-25.601562 14.140625 0 25.601563 11.460938 25.601563 25.601562 0 14.136719-11.460938 25.597657-25.601563 25.597657-14.128906-.015625-25.582031-11.46875-25.597656-25.597657zm42.664063-392.535156v46.285156c-10.867188-4.824218-23.265626-4.824218-34.132813 0v-46.285156zm-34.132813 477.867188v-46.285156c10.867187 4.824218 23.265625 4.824218 34.132813 0v46.285156zm51.199219 0v-59.996094c11.378906-14.976562 11.378906-35.699219 0-50.671875v-102.929687c11.378906-14.972657 11.378906-35.699219 0-50.671876v-102.929687c11.378906-14.972656 11.378906-35.695313 0-50.671875v-59.996094h273.070312v59.996094c-11.378906 14.976562-11.378906 35.699219 0 50.671875v102.929687c-11.378906 14.972657-11.378906 35.699219 0 50.671876v102.929687c-11.378906 14.972656-11.378906 35.695313 0 50.671875v59.996094zm290.136718 0v-46.285156c10.867188 4.824218 23.265626 4.824218 34.132813 0v46.285156zm0 0"/><path d="m503.464844 93.867188h-8.53125c-4.714844 0-8.535156 3.820312-8.535156 8.53125 0 4.714843 3.820312 8.535156 8.535156 8.535156h8.53125c4.714844 0 8.535156-3.820313 8.535156-8.535156 0-4.710938-3.820312-8.53125-8.535156-8.53125zm0 0"/><path d="m487.359375 76.800781c1.355469 0 2.695313-.324219 3.898437-.949219l7.582032-3.910156c4.082031-2.214844 5.644531-7.28125 3.519531-11.410156-2.128906-4.125-7.164063-5.796875-11.335937-3.757812l-7.582032 3.910156c-3.5 1.804687-5.308594 5.769531-4.378906 9.597656s4.359375 6.519531 8.296875 6.519531zm0 0"/><path d="m483.441406 144.117188 7.582032 3.90625c1.207031.628906 2.542968.953124 3.902343.953124 3.9375 0 7.367188-2.691406 8.296875-6.519531.929688-3.828125-.882812-7.792969-4.382812-9.597656l-7.582032-3.910156c-4.171874-2.039063-9.207031-.367188-11.332031 3.757812-2.128906 4.125-.566406 9.195313 3.515625 11.410157zm0 0"/><path d="m503.464844 247.464844h-8.53125c-4.714844 0-8.535156 3.824218-8.535156 8.535156s3.820312 8.535156 8.535156 8.535156h8.53125c4.714844 0 8.535156-3.824218 8.535156-8.535156s-3.820312-8.535156-8.535156-8.535156zm0 0"/><path d="m479.765625 225.773438c1.464844 2.84375 4.398437 4.628906 7.597656 4.625 1.355469.003906 2.695313-.320313 3.898438-.949219l7.582031-3.90625c2.777344-1.359375 4.605469-4.113281 4.773438-7.199219.171874-3.085938-1.34375-6.023438-3.957032-7.679688-2.613281-1.652343-5.914062-1.761718-8.632812-.289062l-7.582032 3.90625c-2.011718 1.039062-3.53125 2.828125-4.222656 4.984375-.6875 2.15625-.492187 4.496094.542969 6.507813zm0 0"/><path d="m483.441406 297.71875 7.582032 3.90625c1.207031.625 2.542968.953125 3.902343.949219 3.9375.003906 7.367188-2.691407 8.296875-6.515625.929688-3.828125-.882812-7.796875-4.382812-9.601563l-7.582032-3.90625c-4.171874-2.039062-9.207031-.371093-11.332031 3.757813-2.128906 4.125-.566406 9.195312 3.515625 11.410156zm0 0"/><path d="m512 409.601562c0-4.714843-3.820312-8.535156-8.535156-8.535156h-8.53125c-4.714844 0-8.535156 3.820313-8.535156 8.535156 0 4.710938 3.820312 8.53125 8.535156 8.53125h8.53125c4.714844 0 8.535156-3.820312 8.535156-8.53125zm0 0"/><path d="m479.765625 379.375c1.464844 2.84375 4.398437 4.628906 7.597656 4.625 1.355469.003906 2.695313-.324219 3.898438-.949219l7.582031-3.910156c4.082031-2.210937 5.644531-7.28125 3.519531-11.410156-2.128906-4.125-7.164062-5.792969-11.335937-3.753907l-7.582032 3.90625c-2.011718 1.035157-3.53125 2.828126-4.222656 4.984376-.6875 2.15625-.492187 4.496093.542969 6.507812zm0 0"/><path d="m483.441406 451.316406 7.582032 3.910156c1.207031.625 2.542968.949219 3.902343.949219 3.9375 0 7.367188-2.691406 8.296875-6.519531.929688-3.828125-.882812-7.792969-4.382812-9.597656l-7.582032-3.910156c-4.171874-2.039063-9.207031-.367188-11.332031 3.757812-2.128906 4.128906-.566406 9.195312 3.515625 11.410156zm0 0"/><path d="m153.601562 85.332031c2.261719.003907 4.433594-.894531 6.03125-2.5l25.601563-25.597656c2.21875-2.144531 3.105469-5.316406 2.324219-8.300781s-3.109375-5.3125-6.09375-6.09375-6.15625.109375-8.296875 2.328125l-25.601563 25.597656c-2.4375 2.441406-3.167968 6.113281-1.847656 9.300781s4.429688 5.265625 7.882812 5.265625zm0 0"/><path d="m153.601562 153.601562c2.261719 0 4.433594-.898437 6.03125-2.5l93.867188-93.867187c2.21875-2.144531 3.109375-5.316406 2.328125-8.300781s-3.113281-5.3125-6.097656-6.09375c-2.980469-.78125-6.15625.109375-8.296875 2.328125l-93.867188 93.867187c-2.4375 2.4375-3.167968 6.109375-1.847656 9.296875s4.429688 5.265625 7.882812 5.269531zm0 0"/><path d="m309.699219 45.167969-162.132813 162.132812c-2.21875 2.140625-3.105468 5.316407-2.328125 8.296875.78125 2.984375 3.113281 5.316406 6.097657 6.097656 2.980468.777344 6.15625-.109374 8.296874-2.328124l162.132813-162.132813c2.21875-2.144531 3.109375-5.316406 2.328125-8.300781s-3.109375-5.3125-6.09375-6.09375-6.15625.109375-8.300781 2.328125zm0 0"/></svg>