<?xml version="1.0" encoding="iso-8859-1"?>
<!-- Generator: Adobe Illustrator 19.0.0, SVG Export Plug-In . SVG Version: 6.00 Build 0)  -->
<svg version="1.1" id="Capa_1" xmlns="http://www.w3.org/2000/svg" xmlns:xlink="http://www.w3.org/1999/xlink" x="0px" y="0px"
	 viewBox="0 0 512 512" style="enable-background:new 0 0 512 512;" xml:space="preserve">
<g>
	<g>
		<g>
			<path d="M507.388,459.253L15.807,108.543c-3.048-2.174-7.057-2.463-10.386-0.75C2.093,109.508,0,112.939,0,116.684v350.995
				c0,5.523,4.477,10,10,10H501.98c0.008,0.001,0.014,0.001,0.02,0c5.523,0,10-4.477,10-10
				C512,464.14,510.162,461.031,507.388,459.253z M339.985,457.679v-10.001c0-5.523-4.478-10-10-10s-10,4.477-10,10v10.001h-59.997
				V427.68c0-5.523-4.477-10-10-10c-5.523,0-10,4.477-10,10v29.999h-59.999v-10.001c0-5.523-4.477-10-10-10c-5.522,0-10,4.477-10,10
				v10.001H99.995V427.68c0-5.523-4.478-10-10-10c-5.522,0-10,4.477-10,10v29.999H19.999v-59.997h29.997c5.522,0,10-4.477,10-10
				s-4.478-10-10-10H19.999v-59.999h9.999c5.522,0,10-4.477,10-10s-4.478-10-10-10h-9.999v-59.997h29.997c5.522,0,10-4.477,10-10
				c0-5.523-4.478-10-10-10H19.999v-81.587l450.747,321.578H339.985z"/>
			<path d="M89.995,397.682h162.116c4.349,0,8.198-2.81,9.523-6.951c1.326-4.141-0.176-8.664-3.716-11.189L95.803,263.885
				c-3.048-2.175-7.057-2.464-10.386-0.75s-5.422,5.145-5.422,8.89v115.658C79.995,393.205,84.473,397.682,89.995,397.682z
				 M99.995,291.443l120.883,86.241H99.995V291.443z"/>
			<path d="M163.055,287.294l41.546,29.638c1.761,1.256,3.789,1.86,5.799,1.86c3.122,0,6.198-1.458,8.149-4.193
				c3.208-4.496,2.163-10.741-2.333-13.948l-41.546-29.638c-4.496-3.208-10.741-2.163-13.948,2.333
				C157.514,277.842,158.558,284.087,163.055,287.294z"/>
			<path d="M227.981,333.609l0.193,0.138c1.762,1.259,3.794,1.865,5.806,1.865c3.119,0,6.192-1.456,8.145-4.186
				c3.211-4.494,2.172-10.739-2.321-13.95l-0.193-0.138c-4.494-3.212-10.739-2.171-13.95,2.321
				C222.449,324.153,223.488,330.398,227.981,333.609z"/>
			<path d="M173.495,65.596l-7.071,7.072c-3.905,3.905-3.905,10.237,0,14.142l212.127,212.127c1.098,1.098,2.437,1.925,3.909,2.415
				l42.427,14.141c1.036,0.346,2.103,0.514,3.161,0.514c2.61,0,5.166-1.023,7.072-2.93c2.678-2.678,3.613-6.64,2.416-10.233
				l-14.141-42.424c-0.491-1.473-1.318-2.811-2.416-3.909L241.383,76.914c-0.003-0.002-0.005-0.005-0.007-0.007
				c-0.002-0.003-0.005-0.004-0.008-0.007l-32.517-32.518c-1.876-1.875-4.419-2.929-7.071-2.929s-5.195,1.054-7.071,2.929
				l-7.071,7.071L173.435,37.25c-3.906-3.905-10.236-3.905-14.143,0c-3.905,3.905-3.905,10.237,0,14.143L173.495,65.596z
				 M405.167,268.985l7.07,21.211l-21.214-7.071l-0.131-0.131l14.143-14.142L405.167,268.985z M390.892,254.71l-14.144,14.143
				L220.16,112.262l14.143-14.142L390.892,254.71z M201.779,65.595l18.382,18.383l-14.143,14.143l-18.382-18.382L201.779,65.595z"/>
		</g>
	</g>
</g>
<g>
</g>
<g>
</g>
<g>
</g>
<g>
</g>
<g>
</g>
<g>
</g>
<g>
</g>
<g>
</g>
<g>
</g>
<g>
</g>
<g>
</g>
<g>
</g>
<g>
</g>
<g>
</g>
<g>
</g>
</svg>
