<?xml version="1.0" encoding="iso-8859-1"?>
<!-- Generator: Adobe Illustrator 19.0.0, SVG Export Plug-In . SVG Version: 6.00 Build 0)  -->
<svg version="1.1" id="Capa_1" xmlns="http://www.w3.org/2000/svg" xmlns:xlink="http://www.w3.org/1999/xlink" x="0px" y="0px"
	 viewBox="0 0 480.408 480.408" style="enable-background:new 0 0 480.408 480.408;" xml:space="preserve">
<g>
	<g>
		<path d="M408.204,0c-17.327,0.021-33.31,9.34-41.864,24.408H185.98c-18.645,0.022-33.754,15.131-33.776,33.776v40.88
			c-51.336,11.318-87.92,56.776-88,109.344c0,22.592,15.424,42.44,40,55.544v48.456c0,4.418,3.582,8,8,8s8-3.582,8-8v-41.416
			c5.237,1.904,10.579,3.507,16,4.8v52.616c0,4.418,3.582,8,8,8s8-3.582,8-8v-49.6c5.192,0.704,10.544,1.136,16,1.376v48.224
			c0,4.418,3.582,8,8,8s8-3.582,8-8V280.16c5.456-0.24,10.808-0.672,16-1.376v49.624c0,4.418,3.582,8,8,8s8-3.582,8-8V275.76
			c5.421-1.293,10.763-2.896,16-4.8v41.448c0,4.418,3.582,8,8,8s8-3.582,8-8v-48.456c24.576-13.104,40-32.952,40-55.544
			c-0.08-52.568-36.664-98.026-88-109.344V72.408h166.4c8.606,14.834,24.45,23.975,41.6,24c4.418,0,8-3.582,8-8V8
			C416.204,3.582,412.622,0,408.204,0z M272.204,208.408c0,13.816-9.168,26.624-24,36.512v-4.512c0-4.418-3.582-8-8-8s-8,3.582-8,8
			v13.072c-5.2,2.227-10.546,4.098-16,5.6v-18.672c0-4.418-3.582-8-8-8s-8,3.582-8,8v22.08c-5.3,0.84-10.641,1.398-16,1.672v-23.752
			c0-4.418-3.582-8-8-8s-8,3.582-8,8v23.752c-5.359-0.274-10.7-0.832-16-1.672v-22.08c0-4.418-3.582-8-8-8s-8,3.582-8,8v18.648
			c-5.454-1.502-10.8-3.373-16-5.6v-13.048c0-4.418-3.582-8-8-8s-8,3.582-8,8v4.512c-14.832-9.888-24-22.696-24-36.512
			c0-30.352,44-56,96-56S272.204,178.056,272.204,208.408z M225.129,125.853c13.723,8.161,25.187,19.624,33.347,33.347
			c-24.543-15.62-53.19-23.556-82.272-22.792c-29.082-0.764-57.729,7.172-82.272,22.792
			C120.952,113.762,179.691,98.832,225.129,125.853z M360.204,44.2c-0.112,1.32-0.2,2.656-0.2,4s0.088,2.68,0.2,4v4.208h-168
			c-4.418,0-8,3.582-8,8v32.408c-2.656-0.192-5.296-0.408-8-0.408c-2.704,0-5.344,0.216-8,0.408V58.184
			c0.013-9.812,7.964-17.763,17.776-17.776h174.224V44.2z M400.204,79.4c-13.338-3.475-22.987-15.053-24-28.8v-4.8
			c1.011-13.747,10.66-25.327,24-28.8V79.4z"/>
	</g>
</g>
<g>
	<g>
		<path d="M240.204,336.408c-4.418,0-8,3.582-8,8v56c0,4.418,3.582,8,8,8s8-3.582,8-8v-56
			C248.204,339.99,244.622,336.408,240.204,336.408z"/>
	</g>
</g>
<g>
	<g>
		<path d="M208.204,352.408c-4.418,0-8,3.582-8,8v24c0,4.418,3.582,8,8,8s8-3.582,8-8v-24
			C216.204,355.99,212.622,352.408,208.204,352.408z"/>
	</g>
</g>
<g>
	<g>
		<path d="M176.204,352.408c-4.418,0-8,3.582-8,8v64c0,4.418,3.582,8,8,8s8-3.582,8-8v-64
			C184.204,355.99,180.622,352.408,176.204,352.408z"/>
	</g>
</g>
<g>
	<g>
		<path d="M144.204,352.408c-4.418,0-8,3.582-8,8v48c0,4.418,3.582,8,8,8s8-3.582,8-8v-48
			C152.204,355.99,148.622,352.408,144.204,352.408z"/>
	</g>
</g>
<g>
	<g>
		<path d="M112.204,336.408c-4.418,0-8,3.582-8,8v24c0,4.418,3.582,8,8,8s8-3.582,8-8v-24
			C120.204,339.99,116.622,336.408,112.204,336.408z"/>
	</g>
</g>
<g>
	<g>
		<path d="M208.204,408.408c-4.418,0-8,3.582-8,8v8c0,4.418,3.582,8,8,8s8-3.582,8-8v-8
			C216.204,411.99,212.622,408.408,208.204,408.408z"/>
	</g>
</g>
<g>
	<g>
		<path d="M112.204,392.408c-4.418,0-8,3.582-8,8v56c0,4.418,3.582,8,8,8s8-3.582,8-8v-56
			C120.204,395.99,116.622,392.408,112.204,392.408z"/>
	</g>
</g>
<g>
	<g>
		<path d="M144.204,432.408c-4.418,0-8,3.582-8,8v32c0,4.418,3.582,8,8,8s8-3.582,8-8v-32
			C152.204,435.99,148.622,432.408,144.204,432.408z"/>
	</g>
</g>
<g>
	<g>
		<path d="M176.204,448.408c-4.418,0-8,3.582-8,8v8c0,4.418,3.582,8,8,8s8-3.582,8-8v-8
			C184.204,451.99,180.622,448.408,176.204,448.408z"/>
	</g>
</g>
<g>
	<g>
		<path d="M208.204,448.408c-4.418,0-8,3.582-8,8v16c0,4.418,3.582,8,8,8s8-3.582,8-8v-16
			C216.204,451.99,212.622,448.408,208.204,448.408z"/>
	</g>
</g>
<g>
	<g>
		<path d="M240.204,424.408c-4.418,0-8,3.582-8,8v16c0,4.418,3.582,8,8,8s8-3.582,8-8v-16
			C248.204,427.99,244.622,424.408,240.204,424.408z"/>
	</g>
</g>
<g>
</g>
<g>
</g>
<g>
</g>
<g>
</g>
<g>
</g>
<g>
</g>
<g>
</g>
<g>
</g>
<g>
</g>
<g>
</g>
<g>
</g>
<g>
</g>
<g>
</g>
<g>
</g>
<g>
</g>
</svg>
